<svg width="28" height="28" viewBox="0 0 28 28" fill="none" xmlns="http://www.w3.org/2000/svg">
<path fill-rule="evenodd" clip-rule="evenodd" d="M20.3759 3.4053C19.8052 2.83469 19.334 2.36356 18.9175 2.01159C18.4921 1.65205 18.0609 1.36087 17.5483 1.19431C16.7449 0.933277 15.8795 0.933277 15.0762 1.19431C14.5581 1.36263 14.1231 1.6583 13.6931 2.02329C13.2792 2.3747 12.8094 2.84448 12.2402 3.41369L3.4137 12.2402C2.84449 12.8094 2.3747 13.2792 2.02329 13.6931C1.6583 14.1231 1.36263 14.5581 1.19431 15.0762C0.933277 15.8795 0.933278 16.7449 1.19431 17.5483C1.36087 18.0609 1.65206 18.4921 2.01159 18.9175C2.36356 19.334 2.83469 19.8052 3.40531 20.3759C3.76697 20.7375 4.34324 20.768 4.74103 20.4465C5.52562 19.8124 6.68012 19.8606 7.40975 20.5902C8.13938 21.3199 8.18763 22.4744 7.55348 23.259C7.23197 23.6567 7.26244 24.233 7.62412 24.5947C8.19477 25.1653 8.66601 25.6364 9.08246 25.9884C9.50786 26.3479 9.93906 26.6391 10.4517 26.8057C11.2551 27.0667 12.1205 27.0667 12.9238 26.8057C13.4419 26.6374 13.8769 26.3417 14.3069 25.9767C14.7208 25.6253 15.1906 25.1555 15.7598 24.5863L24.5863 15.7598C25.1555 15.1906 25.6253 14.7208 25.9767 14.3069C26.3417 13.8769 26.6374 13.4419 26.8057 12.9238C27.0667 12.1205 27.0667 11.2551 26.8057 10.4517C26.6391 9.93906 26.3479 9.50786 25.9884 9.08247C25.6364 8.66602 25.1653 8.19477 24.5947 7.62412C24.233 7.26245 23.6567 7.23197 23.259 7.55349C22.4744 8.18765 21.3199 8.13941 20.5902 7.40977C19.8606 6.68013 19.8123 5.52562 20.4465 4.74103C20.768 4.34325 20.7375 3.76696 20.3759 3.4053ZM16.9303 3.09642C17.0954 3.15006 17.2974 3.2609 17.6265 3.53909C17.8453 3.72403 18.092 3.95779 18.3995 4.2603C17.6827 5.74933 17.9413 7.58933 19.176 8.82398C20.4107 10.0586 22.2507 10.3173 23.7397 9.60053C24.0422 9.90797 24.276 10.1547 24.4609 10.3735C24.7391 10.7026 24.8499 10.9046 24.9036 11.0697C25.0341 11.4714 25.0341 11.9041 24.9036 12.3058C24.8493 12.4727 24.7367 12.6772 24.452 13.0125C24.1598 13.3568 23.7486 13.7691 23.1429 14.3748L21.466 16.0517L20.2071 14.7928C19.8166 14.4023 19.1834 14.4023 18.7929 14.7928C18.4024 15.1834 18.4024 15.8165 18.7929 16.2071L20.0518 17.4659L14.3748 23.1429C13.7691 23.7486 13.3568 24.1598 13.0125 24.452C12.6772 24.7367 12.4727 24.8493 12.3058 24.9036C11.9041 25.0341 11.4714 25.0341 11.0697 24.9036C10.9046 24.8499 10.7026 24.7391 10.3735 24.4609C10.1547 24.276 9.90797 24.0422 9.60052 23.7397C10.3173 22.2507 10.0586 20.4107 8.82396 19.176C7.58931 17.9414 5.74933 17.6827 4.26031 18.3995C3.95779 18.092 3.72403 17.8453 3.53909 17.6265C3.2609 17.2974 3.15006 17.0954 3.09642 16.9303C2.96591 16.5286 2.96591 16.0959 3.09642 15.6942C3.15066 15.5273 3.26329 15.3228 3.54797 14.9875C3.84023 14.6432 4.25142 14.2309 4.85711 13.6252L10.5341 7.94825L11.7929 9.20705C12.1834 9.59757 12.8166 9.59757 13.2071 9.20705C13.5976 8.81653 13.5976 8.18336 13.2071 7.79284L11.9483 6.53404L13.6252 4.85711C14.2309 4.25142 14.6432 3.84023 14.9875 3.54797C15.3228 3.26329 15.5273 3.15066 15.6942 3.09642C16.0959 2.96591 16.5286 2.96591 16.9303 3.09642ZM15.9571 10.5428C15.5666 10.1523 14.9334 10.1523 14.5429 10.5428C14.1524 10.9334 14.1524 11.5665 14.5429 11.9571L16.0429 13.4571C16.4334 13.8476 17.0666 13.8476 17.4571 13.4571C17.8476 13.0665 17.8476 12.4334 17.4571 12.0428L15.9571 10.5428Z" fill="#99A2AD"/>
</svg>
